<svg width="24" height="24" viewBox="0 0 24 24" fill="none" xmlns="http://www.w3.org/2000/svg">
<path d="M11.989 24L4.63814 22.1007L3 5H21L19.3602 22.098L11.989 24Z" fill="#264DE4"/>
<path d="M17.6668 20.4772L19 6H12V22L17.6668 20.4772Z" fill="#2965F1"/>
<path d="M6.43095 12.2891L6.64538 14.4082H12V12.2891H6.43095ZM6 8L6.2175 10.1191H12V8H6ZM12 17.7926L11.9895 17.795L9.32468 17.1578L9.1543 15.4677H6.75229L7.0875 18.795L11.989 20L12 19.9973V17.7926Z" fill="#EBEBEB"/>
<path d="M7 0H9.94109V0.98572H8.22996V1.97144H9.94124V2.9571H7V0ZM10.5294 0H13.4705V0.857143H11.7593V1.02856H13.4705V3H10.5295V2.0999H12.2407V1.92848H10.5293L10.5294 0ZM14.0588 0H17V0.857143H15.2888V1.02856H17V3H14.0588V2.0999H15.77V1.92848H14.0589L14.0588 0Z" fill="black"/>
<path d="M17.5676 12.2894L18 8H12.0001V10.1193H15.3751L15.1572 12.2894H12.0001V14.4087H14.9495L14.6714 17.1572L12 17.7952V20L16.9103 18.7959L16.9463 18.4379L17.5092 12.8585L17.5676 12.2894Z" fill="white"/>
</svg>
