<svg width="24" height="24" viewBox="0 0 24 24" fill="none" xmlns="http://www.w3.org/2000/svg">
<g clip-path="url(#clip0_28_5)">
<path d="M18.375 0H5.625C2.5184 0 0 2.5184 0 5.625V18.375C0 21.4816 2.5184 24 5.625 24H18.375C21.4816 24 24 21.4816 24 18.375V5.625C24 2.5184 21.4816 0 18.375 0Z" fill="#242938"/>
<path d="M21.375 17.1503C21.1021 17.2537 20.8008 17.2535 20.528 17.1497C20.2552 17.046 20.0299 16.8459 19.8946 16.5874C19.0449 15.3154 18.1067 14.1009 17.2049 12.8603L16.8139 12.3391C15.7401 13.7778 14.6663 15.1591 13.6863 16.5926C13.5586 16.8398 13.3455 17.0321 13.0866 17.1337C12.8277 17.2354 12.5406 17.2395 12.2789 17.1452L16.3083 11.7396L12.5603 6.85526C12.8301 6.75783 13.1253 6.75649 13.3959 6.85146C13.6666 6.94642 13.8962 7.13188 14.046 7.37651C14.9165 8.64851 15.8809 9.86304 16.8399 11.1506C17.8043 9.87345 18.7582 8.65367 19.6496 7.39217C19.778 7.14903 19.9912 6.96156 20.2488 6.86545C20.5064 6.76934 20.7903 6.77128 21.0466 6.87092L19.5922 8.79963C18.9407 9.6597 18.2995 10.525 17.6219 11.3643C17.5673 11.4131 17.5236 11.473 17.4936 11.5399C17.4637 11.6068 17.4482 11.6793 17.4482 11.7526C17.4482 11.8259 17.4637 11.8984 17.4936 11.9653C17.5236 12.0323 17.5673 12.0921 17.6219 12.141C18.8678 13.7934 20.1031 15.451 21.375 17.1503ZM2.625 11.6719C2.7345 11.1506 2.80219 10.5824 2.95341 10.0507C3.85519 6.84495 7.53009 5.51041 10.0583 7.49651C11.5387 8.65901 11.9088 10.3062 11.8358 12.1619H3.49556C3.36 15.4772 5.75259 17.4788 8.81241 16.4571C9.30875 16.2796 9.75307 15.9812 10.1053 15.589C10.4575 15.1967 10.7064 14.7229 10.8297 14.2104C10.9913 13.6892 11.252 13.6006 11.7472 13.7517C11.6656 14.3863 11.4413 14.9942 11.091 15.5296C10.7407 16.065 10.2735 16.514 9.72469 16.8428C8.8179 17.3387 7.77752 17.5352 6.75234 17.4041C5.72715 17.2731 4.76966 16.8212 4.01681 16.1131C3.272 15.2756 2.82165 14.2175 2.7345 13.1001C2.7345 12.9229 2.66672 12.7457 2.63025 12.5789C2.6268 12.2766 2.62505 11.9742 2.625 11.6719ZM3.50597 11.4477H11.0487C11.0017 9.0447 9.48487 7.34013 7.46241 7.32457C5.21053 7.29326 3.59981 8.96126 3.50072 11.4373L3.50597 11.4477Z" fill="white"/>
</g>
<defs>
<clipPath id="clip0_28_5">
<rect width="24" height="24" fill="white"/>
</clipPath>
</defs>
</svg>
