<svg width="24" height="24" viewBox="0 0 24 24" fill="none" xmlns="http://www.w3.org/2000/svg">
<path d="M21 5L19.4513 22.098L12.4896 24L5.54713 22.1007L4 5H21Z" fill="#E44D26"/>
<path d="M13 22L17.8573 20.4772L19 6H13V22Z" fill="#F16529"/>
<path d="M9.61501 10.1191H13V8H7L7.05724 8.56851L7.64538 14.4082H13V12.2891H9.83371L9.61501 10.1191ZM10.1543 15.4677H7.75229L8.0875 18.795L12.989 20L13 19.9973V17.7926L12.9895 17.795L10.3247 17.1578L10.1543 15.4677Z" fill="#EBEBEB"/>
<path d="M6 0H7.01394V0.990671H7.94148V0H8.95549V3H7.94154V1.99543H7.014V3H6.00006L6 0ZM10.2888 0.994872H9.3963V0H12.196V0.994872H11.3029V3H10.289V0.994872H10.2888ZM12.6403 0H13.6975L14.3479 1.05412L14.9976 0H16.0553V3H15.0454V1.51304L14.3479 2.5797H14.3304L13.6324 1.51304V3H12.6403V0ZM16.5599 0H17.5741V2.0084H19V3H16.5598L16.5599 0Z" fill="black"/>
<path d="M13.0001 14.4087H15.4579L15.2262 17.1572L13 17.7952V20L17.0919 18.7959L17.1219 18.4379L17.591 12.8585L17.6397 12.2894H13.0001V14.4087ZM13.0001 10.1141V10.1193H17.8213L17.8613 9.64295L17.9523 8.56855L18 8H13.0001V10.1141Z" fill="white"/>
</svg>
