<svg width="20" height="18" viewBox="0 0 20 18" fill="none" xmlns="http://www.w3.org/2000/svg">
<path d="M19.5 2.57143C19.5 1.15313 18.2828 0 16.7857 0H3.21429C1.71719 0 0.5 1.15313 0.5 2.57143V15.4286C0.5 16.8469 1.71719 18 3.21429 18H16.7857C18.2828 18 19.5 16.8469 19.5 15.4286V2.57143ZM8.1721 16.5897C6.74286 16.5897 5.91585 15.8906 5.49174 15.0429L6.94643 14.2112C7.22634 14.6813 7.4808 15.079 8.09576 15.079C8.68103 15.079 9.05424 14.8621 9.05424 14.0143V8.26473H10.8397V14.0384C10.8397 15.7902 9.75402 16.5897 8.1721 16.5897ZM11.8109 14.8621L13.2656 14.0665C13.6473 14.6571 14.1478 15.0951 15.0257 15.0951C15.7636 15.0951 16.2386 14.7455 16.2386 14.2594C16.2386 13.6808 15.7551 13.4759 14.9366 13.1344L14.4913 12.9536C13.202 12.4353 12.3496 11.7804 12.3496 10.4022C12.3496 9.13259 13.3717 8.1683 14.9621 8.1683C16.0987 8.1683 16.9129 8.54196 17.4982 9.52232L16.1071 10.3661C15.8018 9.84777 15.471 9.64286 14.9578 9.64286C14.4362 9.64286 14.1054 9.95625 14.1054 10.3661C14.1054 10.8723 14.4362 11.0772 15.2038 11.3946L15.6491 11.5754C17.1674 12.1902 18.0199 12.821 18.0199 14.2353C18.0199 15.754 16.756 16.5897 15.0638 16.5897C13.4056 16.5897 12.3326 15.8424 11.8109 14.8621Z" fill="#F0DB4F"/>
</svg>
