<svg width="21" height="24" viewBox="0 0 21 24" fill="none" xmlns="http://www.w3.org/2000/svg">
<path d="M10.5 24C10.1739 24 9.86959 23.9118 9.58699 23.7575L6.69564 22.0156C6.26087 21.7731 6.47825 21.6849 6.60868 21.6408C7.19562 21.4424 7.30431 21.3983 7.91298 21.0454C7.97828 21.0013 8.06523 21.0234 8.13036 21.0675L10.3478 22.4125C10.4348 22.4566 10.5435 22.4566 10.6087 22.4125L19.2827 17.3193C19.3696 17.2752 19.4131 17.187 19.4131 17.0767V6.91217C19.4131 6.80193 19.3696 6.71374 19.2827 6.66964L10.6087 1.59839C10.5217 1.55429 10.413 1.55429 10.3478 1.59839L1.67385 6.66972C1.58689 6.71382 1.54342 6.82406 1.54342 6.91225V17.0767C1.54342 17.1649 1.58689 17.2752 1.67385 17.3193L4.04348 18.7083C5.32613 19.3697 6.13036 18.598 6.13036 17.8263V7.79408C6.13036 7.66179 6.23913 7.52951 6.3913 7.52951H7.50003C7.63046 7.52951 7.76089 7.63975 7.76089 7.79408V17.8263C7.76089 19.5681 6.82607 20.5823 5.19561 20.5823C4.69563 20.5823 4.30434 20.5823 3.19569 20.0311L0.913008 18.7083C0.347812 18.3775 0 17.7601 0 17.0987V6.9343C0 6.27286 0.347812 5.65552 0.913008 5.32472L9.58699 0.231502C10.1304 -0.0771675 10.8696 -0.0771675 11.413 0.231502L20.087 5.32472C20.6522 5.65544 21 6.27278 21 6.9343V17.0988C21 17.7602 20.6522 18.3775 20.087 18.7083L11.413 23.8017C11.1304 23.9339 10.8043 24 10.5 24ZM13.1739 17.0106C9.36953 17.0106 8.58695 15.2468 8.58695 13.7474C8.58695 13.6151 8.69564 13.4828 8.84781 13.4828H9.9782C10.1086 13.4828 10.2174 13.571 10.2174 13.7033C10.3913 14.8719 10.8913 15.4452 13.1956 15.4452C15.0217 15.4452 15.8044 15.0263 15.8044 14.0341C15.8044 13.4608 15.587 13.0419 12.7391 12.7552C10.3696 12.5127 8.89128 11.9835 8.89128 10.0653C8.89128 8.2793 10.3695 7.221 12.8478 7.221C15.6304 7.221 17 8.19111 17.1739 10.3078C17.1739 10.3739 17.1522 10.4401 17.1087 10.5062C17.0652 10.5503 17 10.5944 16.9348 10.5944H15.8044C15.6956 10.5944 15.587 10.5062 15.5652 10.396C15.3043 9.18334 14.6304 8.78648 12.8478 8.78648C10.8479 8.78648 10.6087 9.49201 10.6087 10.0212C10.6087 10.6606 10.8913 10.859 13.5869 11.2117C16.2609 11.5645 17.5217 12.0717 17.5217 13.9679C17.5 15.9082 15.9348 17.0106 13.1739 17.0106Z" fill="#539E43"/>
</svg>
