<svg width="24" height="22" viewBox="0 0 24 22" fill="none" xmlns="http://www.w3.org/2000/svg">
<path d="M12 13.1375C13.1805 13.1375 14.1375 12.1806 14.1375 11C14.1375 9.81954 13.1805 8.86255 12 8.86255C10.8195 8.86255 9.86249 9.81954 9.86249 11C9.86249 12.1806 10.8195 13.1375 12 13.1375Z" fill="#61DAFB"/>
<path d="M20.1188 7.47505C19.7063 7.32505 19.275 7.17505 18.825 7.0438C18.9375 6.5938 19.0313 6.1438 19.1063 5.71255C19.5 3.23755 19.0688 1.4938 17.8688 0.818799C17.5125 0.612549 17.1188 0.518799 16.6688 0.518799C15.3563 0.518799 13.6875 1.4938 12 3.12505C10.3125 1.4938 8.64376 0.518799 7.33126 0.518799C6.88126 0.518799 6.48751 0.612549 6.13126 0.818799C4.93126 1.51255 4.50001 3.2563 4.89376 5.71255C4.96876 6.1438 5.06251 6.5938 5.17501 7.0438C4.72501 7.17505 4.29376 7.3063 3.88126 7.47505C1.53751 8.37505 0.262512 9.61255 0.262512 11C0.262512 12.3876 1.55626 13.6251 3.88126 14.5251C4.29376 14.6751 4.72501 14.8251 5.17501 14.9563C5.06251 15.4063 4.96876 15.8563 4.89376 16.2875C4.50001 18.7626 4.93126 20.5063 6.13126 21.1813C6.48751 21.3876 6.88126 21.4813 7.33126 21.4813C8.66251 21.4813 10.3313 20.5063 12 18.8751C13.6875 20.5063 15.3563 21.4813 16.6688 21.4813C17.1188 21.4813 17.5125 21.3876 17.8688 21.1813C19.0688 20.4876 19.5 18.7438 19.1063 16.2875C19.0313 15.8563 18.9375 15.4063 18.825 14.9563C19.275 14.8251 19.7063 14.6938 20.1188 14.5251C22.4625 13.6251 23.7375 12.3876 23.7375 11C23.7375 9.61255 22.4625 8.37505 20.1188 7.47505ZM17.3438 1.7563C18.1125 2.2063 18.375 3.5938 18.0563 5.56255C18 5.9563 17.9063 6.3688 17.7938 6.80005C16.8188 6.57505 15.7875 6.42505 14.7 6.3313C14.0625 5.4313 13.4063 4.62505 12.75 3.8938C14.1375 2.52505 15.5438 1.58755 16.6875 1.58755C16.9313 1.58755 17.1563 1.6438 17.3438 1.7563ZM15.2438 12.8751C14.9063 13.475 14.5125 14.0751 14.1 14.675C13.4063 14.7313 12.7125 14.7501 12 14.7501C11.2688 14.7501 10.575 14.7313 9.90001 14.675C9.48751 14.0751 9.11251 13.475 8.77501 12.8751C8.41876 12.2563 8.08126 11.6188 7.78126 11C8.08126 10.3813 8.41876 9.7438 8.77501 9.12505C9.11251 8.52505 9.50626 7.92505 9.91876 7.32505C10.6125 7.2688 11.3063 7.25005 12.0188 7.25005C12.75 7.25005 13.4438 7.2688 14.1188 7.32505C14.5313 7.92505 14.9063 8.52505 15.2438 9.12505C15.6 9.7438 15.9375 10.3813 16.2375 11C15.9188 11.6188 15.6 12.2375 15.2438 12.8751ZM16.8 12.2563C17.0813 12.9125 17.3063 13.55 17.5125 14.1876C16.875 14.3376 16.2 14.4501 15.4875 14.5438C15.7125 14.1876 15.9563 13.8126 16.1625 13.4188C16.3875 13.0251 16.5938 12.6313 16.8 12.2563ZM12 17.3376C11.55 16.8501 11.1188 16.3251 10.7063 15.7813C11.1375 15.8001 11.5688 15.8188 12 15.8188C12.4313 15.8188 12.8625 15.8001 13.2938 15.7813C12.8813 16.3251 12.45 16.8501 12 17.3376ZM8.51251 14.5251C7.80001 14.4313 7.12501 14.3188 6.48751 14.1688C6.69376 13.5501 6.91876 12.8938 7.20001 12.2375C7.40626 12.6125 7.61251 13.0063 7.83751 13.3813C8.06251 13.7938 8.28751 14.1501 8.51251 14.5251ZM7.20001 9.7438C6.91876 9.08755 6.69376 8.45005 6.48751 7.81255C7.12501 7.66255 7.80001 7.55005 8.51251 7.4563C8.28751 7.81255 8.04376 8.18755 7.83751 8.5813C7.61251 8.97505 7.40626 9.3688 7.20001 9.7438ZM12 4.66255C12.45 5.15005 12.8813 5.67505 13.2938 6.2188C12.8625 6.20005 12.4313 6.1813 12 6.1813C11.5688 6.1813 11.1375 6.20005 10.7063 6.2188C11.1188 5.67505 11.55 5.15005 12 4.66255ZM16.1625 8.60005L15.4875 7.47505C16.2 7.5688 16.875 7.6813 17.5125 7.8313C17.3063 8.45005 17.0813 9.1063 16.8 9.76255C16.5938 9.3688 16.3875 8.97505 16.1625 8.60005ZM5.94376 5.56255C5.62501 3.5938 5.88751 2.2063 6.65626 1.7563C6.84376 1.6438 7.06876 1.58755 7.31251 1.58755C8.43751 1.58755 9.84376 2.5063 11.25 3.8938C10.5938 4.6063 9.93751 5.4313 9.30001 6.3313C8.21251 6.42505 7.18126 6.5938 6.20626 6.80005C6.09376 6.3688 6.01876 5.9563 5.94376 5.56255ZM1.31251 11C1.31251 10.1188 2.38126 9.1813 4.25626 8.48755C4.63126 8.33755 5.04376 8.2063 5.45626 8.0938C5.75626 9.0313 6.13126 10.025 6.58126 11.0188C6.13126 12.0125 5.73751 12.9875 5.45626 13.925C2.86876 13.175 1.31251 12.05 1.31251 11ZM6.65626 20.2438C5.88751 19.7938 5.62501 18.4063 5.94376 16.4376C6.00001 16.0438 6.09376 15.6313 6.20626 15.2001C7.18126 15.4251 8.21251 15.5751 9.30001 15.6688C9.93751 16.5688 10.5938 17.3751 11.25 18.1063C9.86251 19.4751 8.45626 20.4125 7.31251 20.4125C7.06876 20.4125 6.84376 20.3563 6.65626 20.2438ZM18.0563 16.4376C18.375 18.4063 18.1125 19.7938 17.3438 20.2438C17.1563 20.3563 16.9313 20.4125 16.6875 20.4125C15.5625 20.4125 14.1563 19.4938 12.75 18.1063C13.4063 17.3938 14.0625 16.5688 14.7 15.6688C15.7875 15.5751 16.8188 15.4063 17.7938 15.2001C17.9063 15.6313 17.9813 16.0438 18.0563 16.4376ZM19.7438 13.5126C19.3688 13.6625 18.9563 13.7938 18.5438 13.9063C18.2438 12.9688 17.8688 11.975 17.4188 10.9813C17.8688 9.98755 18.2625 9.01255 18.5438 8.07505C21.1313 8.82505 22.6875 9.95005 22.6875 11C22.6875 11.8813 21.6 12.8188 19.7438 13.5126Z" fill="#61DAFB"/>
</svg>
