<svg width="24" height="24" viewBox="0 0 24 24" fill="none" xmlns="http://www.w3.org/2000/svg">
<g clip-path="url(#clip0_28_15)">
<path d="M16.6295 16.695C17.5151 16.5989 18.187 15.7978 18.1565 14.8364C18.126 13.8751 17.3624 13.1061 16.4462 13.1061H16.3852C15.4383 13.1381 14.7053 13.9712 14.7359 14.9646C14.7665 15.4453 14.9497 15.8618 15.2245 16.1502C14.1862 18.2972 12.598 19.8674 10.2158 21.1812C8.59715 22.0784 6.91744 22.3989 5.23772 22.1746C3.86334 21.9823 2.79441 21.3415 2.12241 20.2839C1.14516 18.7138 1.05356 17.0154 1.87819 15.3171C2.4585 14.0994 3.37462 13.2022 3.95494 12.7535C3.83278 12.337 3.6495 11.632 3.55791 11.1194C-0.870564 14.484 -0.412407 19.0343 0.931405 21.1812C1.93922 22.7835 3.9855 23.7768 6.24553 23.7768C6.85631 23.7768 7.46709 23.7127 8.07797 23.5526C11.9872 22.7514 14.9497 20.316 16.6295 16.695ZM22.0047 12.7216C19.6836 9.86961 16.263 8.29948 12.3537 8.29948H11.8651C11.5902 7.72269 11.0099 7.3381 10.3686 7.3381H10.3074C9.36075 7.37016 8.62781 8.20328 8.65828 9.19672C8.68884 10.158 9.45234 10.9271 10.3686 10.9271H10.4296C11.1015 10.895 11.6818 10.4464 11.9261 9.83754H12.4759C14.797 9.83754 16.9959 10.5425 18.9812 11.9204C20.5082 12.9779 21.6077 14.3558 22.2185 16.0221C22.7377 17.3679 22.7071 18.6817 22.1573 19.8033C21.3022 21.5016 19.8668 22.431 17.9733 22.431C16.7516 22.431 15.5911 22.0464 14.9802 21.758C14.6443 22.0784 14.0334 22.5911 13.6058 22.9116C14.9192 23.5525 16.263 23.905 17.5457 23.905C20.4776 23.905 22.6461 22.2066 23.4707 20.5083C24.3563 18.6497 24.2952 15.4453 22.0047 12.7216ZM6.48984 17.2397C6.5204 18.201 7.28391 18.97 8.20012 18.97H8.26125C9.20803 18.9381 9.94097 18.1049 9.9104 17.1115C9.87994 16.1501 9.11634 15.3811 8.20012 15.3811H8.13909C8.07797 15.3811 7.98628 15.3811 7.92534 15.4131C6.67312 13.2341 6.15394 10.863 6.33722 8.29938C6.45928 6.37672 7.07016 4.71039 8.13909 3.33246C9.02475 2.14682 10.735 1.57003 11.8957 1.53807C15.1329 1.47393 16.5072 5.70374 16.5989 7.40213C16.9959 7.49823 17.6678 7.72259 18.126 7.88282C17.7594 2.69174 14.7053 0 11.7735 0C9.02475 0 6.48984 2.08289 5.48194 5.15911C4.07709 9.26075 4.99331 13.2022 6.70359 16.3105C6.55097 16.5347 6.45928 16.8871 6.48984 17.2397Z" fill="#764ABC"/>
</g>
<defs>
<clipPath id="clip0_28_15">
<rect width="24" height="24" fill="white"/>
</clipPath>
</defs>
</svg>
