<svg width="32" height="32" viewBox="0 0 32 32" fill="none" xmlns="http://www.w3.org/2000/svg">
<path d="M18.05 29.6001C18.092 29.5051 18.198 29.4391 18.275 29.3591C19.45 28.1271 20.635 26.9061 21.794 25.6591C22.1566 25.3241 22.4369 24.9098 22.6128 24.4485C22.7887 23.9872 22.8555 23.4915 22.808 23.0001C22.7716 22.7896 22.7238 22.5813 22.665 22.3761C22.349 22.6761 22.055 22.9491 21.759 23.2241C21.299 23.6521 20.841 24.0821 20.377 24.5051C20.1034 24.784 19.7516 24.9734 19.3681 25.0482C18.9845 25.123 18.5874 25.0797 18.229 24.9241C17.8662 24.7908 17.5505 24.5539 17.3212 24.2428C17.0919 23.9317 16.9589 23.56 16.939 23.1741C16.9282 23.1244 16.9138 23.0756 16.896 23.0281C16.543 23.3281 16.205 23.6041 15.87 23.8881L8.90697 29.7881C8.85897 29.8291 8.80697 29.8801 8.76197 29.9201H18.045L18.031 29.9111C17.981 29.8761 18.007 29.6921 18.05 29.6001ZM8.33697 29.6001C8.41954 29.4925 8.5192 29.3993 8.63197 29.3241L18.268 21.1491C18.9253 20.5911 19.5796 20.0301 20.231 19.4661C20.3114 19.4099 20.3745 19.3323 20.413 19.2421C20.5688 18.5632 20.5908 17.8604 20.478 17.1731C20.378 17.2431 20.324 17.2731 20.278 17.3221C19.489 18.0281 18.704 18.7401 17.911 19.4421C17.6483 19.7065 17.3085 19.8807 16.9405 19.9399C16.5725 19.999 16.1953 19.9399 15.863 19.7711C15.524 19.611 15.2402 19.3537 15.0479 19.032C14.8556 18.7102 14.7634 18.3384 14.783 17.9641V17.6401C14.638 17.7461 14.532 17.8171 14.433 17.8971C10.5763 20.9851 6.7203 24.0707 2.86497 27.1541C2.69097 27.2931 2.48297 27.6031 2.25497 27.3021C2.02697 27.0011 2.37397 26.8771 2.54897 26.7371C6.65897 23.4391 10.771 20.1441 14.885 16.8521C15.555 16.3151 15.599 16.0901 15.163 15.2371L14.903 15.4811C14.19 16.1441 13.469 16.7981 12.767 17.4721C12.479 17.7498 12.1184 17.9405 11.7267 18.022C11.335 18.1035 10.9282 18.0726 10.5533 17.9328C10.1785 17.793 9.85078 17.55 9.60812 17.2319C9.36547 16.9138 9.21773 16.5335 9.18197 16.1351C9.04897 16.2351 8.93397 16.3081 8.82497 16.3931L2.72497 21.1211C2.61976 21.2242 2.49978 21.3112 2.36897 21.3791C2.27024 21.4089 2.16423 21.4036 2.06897 21.3641V29.9251H8.32497C8.30171 29.8736 8.29069 29.8175 8.29277 29.7611C8.29485 29.7048 8.30998 29.6496 8.33697 29.6001Z" fill="#FFCEBF"/>
<path d="M25.237 2.42295C25.067 2.97995 24.902 3.53795 24.753 4.10095C24.6154 4.49881 24.6314 4.93374 24.7979 5.3204C24.9644 5.70706 25.2694 6.01755 25.653 6.19095C26.8264 6.80775 28.1487 7.08481 29.471 6.99095V2.51795C29.4563 2.41988 29.4618 2.31985 29.487 2.22395C29.515 2.16971 29.5504 2.11957 29.592 2.07495H25.233C25.3 2.15295 25.277 2.28995 25.237 2.42295Z" fill="#FF6196"/>
<path d="M16.482 12.032C16.4612 12.5312 16.2866 13.0119 15.982 13.408C14.893 14.8137 13.6424 16.0865 12.256 17.2C12.0324 17.4069 11.749 17.5377 11.4465 17.5737C11.144 17.6096 10.8378 17.5488 10.572 17.4C10.3074 17.2869 10.0843 17.0947 9.93334 16.8498C9.7824 16.6048 9.71101 16.3191 9.72898 16.032C9.76101 15.6793 9.90744 15.3467 10.146 15.085C11.6963 13.6067 13.376 12.2703 15.165 11.092C15.2821 11.0001 15.4252 10.9474 15.574 10.9413C15.7228 10.9352 15.8697 10.976 15.994 11.058C16.1573 11.1594 16.2894 11.3041 16.3756 11.476C16.4617 11.648 16.4985 11.8404 16.482 12.032ZM15.284 18.093C15.2608 17.8719 15.2891 17.6485 15.3669 17.4403C15.4446 17.2321 15.5696 17.0447 15.732 16.893C17.25 15.4929 18.8786 14.2177 20.602 13.08C20.654 13.047 20.702 13.014 20.759 12.98C20.9095 12.8713 21.0919 12.8157 21.2775 12.8221C21.463 12.8284 21.6412 12.8963 21.784 13.015C21.9221 13.132 22.0199 13.2896 22.0633 13.4653C22.1068 13.6411 22.0937 13.8261 22.026 13.994C21.8079 14.7202 21.4055 15.3775 20.858 15.902C19.7459 16.9975 18.6124 18.0711 17.458 19.122C17.2841 19.3007 17.0558 19.4166 16.8088 19.4514C16.5619 19.4861 16.3104 19.4378 16.094 19.314C15.8665 19.1958 15.6729 19.0217 15.5312 18.8081C15.3895 18.5946 15.3044 18.3485 15.284 18.093ZM22.5 18.754C22.22 19.054 21.932 19.34 21.663 19.647C21.5821 19.7656 21.515 19.8931 21.463 20.027C21.611 20.071 21.784 20.187 21.904 20.146C22.515 19.941 23.111 19.695 23.782 19.436C23.636 19.772 23.526 20.082 23.371 20.366C22.7324 21.4391 21.9328 22.4077 21 23.238C20.6453 23.58 20.277 23.907 19.895 24.219C19.6927 24.3868 19.4494 24.498 19.1901 24.541C18.9308 24.584 18.6646 24.5573 18.419 24.4638C18.1733 24.3702 17.9569 24.213 17.7919 24.0084C17.627 23.8037 17.5193 23.5589 17.48 23.299C17.4639 23.1544 17.4767 23.0082 17.5176 22.8686C17.5584 22.7291 17.6265 22.599 17.718 22.486C19.0788 21.0082 20.634 19.7221 22.341 18.663C22.3617 18.6549 22.3837 18.6505 22.406 18.65L22.5 18.754Z" fill="#FF87AF"/>
<path d="M24.794 14.7709L26.505 7.1709L27.705 7.4519L27.086 9.3329C26.508 11.0829 25.923 12.8329 25.359 14.5849C25.249 14.9089 25.105 14.9689 24.794 14.7709ZM22.862 19.2409C23.043 18.5499 23.223 17.9109 23.375 17.2649C23.5231 16.6384 23.8049 16.0514 24.201 15.5439C24.444 15.2249 24.717 15.3519 24.996 15.4209C25.254 15.4839 25.319 15.6729 25.33 15.9209C25.3707 16.6067 25.1618 17.2841 24.742 17.8279C24.2422 18.4475 23.5961 18.9331 22.862 19.2409Z" fill="#FF6196"/>
<path d="M29.993 2.89397C30.0079 2.67126 30.0023 2.44764 29.976 2.22597C29.9554 2.16405 29.9145 2.11087 29.86 2.07497C29.8156 2.03888 29.7637 2.01324 29.708 1.99997C29.676 1.99397 29.631 2.02697 29.588 2.07397C29.5464 2.11859 29.511 2.16873 29.483 2.22297C29.4578 2.31887 29.4523 2.4189 29.467 2.51697V6.98897C28.1447 7.08283 26.8224 6.80577 25.649 6.18897C25.2654 6.01557 24.9604 5.70509 24.7939 5.31842C24.6274 4.93176 24.6114 4.49683 24.749 4.09897C24.898 3.53597 25.063 2.97797 25.233 2.42097C25.273 2.28797 25.296 2.15097 25.233 2.07297C25.198 2.035 25.1496 2.01207 25.098 2.00897C25.032 2.00968 24.968 2.03218 24.916 2.07297C24.8412 2.1177 24.7817 2.18391 24.745 2.26297C24.545 2.86297 24.369 3.46897 24.216 4.08097C24.1583 4.32214 24.1427 4.57149 24.17 4.81797C24.2087 5.26395 24.3746 5.68945 24.6479 6.04396C24.9212 6.39848 25.2906 6.66711 25.712 6.81797C25.901 6.89697 26.012 6.97497 25.959 7.22397C25.886 7.53997 25.815 7.85597 25.743 8.17297C25.253 10.321 24.7657 12.47 24.281 14.62C24.2674 14.7158 24.2252 14.8054 24.16 14.877C23.8406 15.1309 23.5722 15.4431 23.369 15.797C23.1101 16.264 22.931 16.771 22.839 17.297C22.8214 17.4648 22.7607 17.6252 22.663 17.7627C22.5652 17.9002 22.4337 18.0102 22.281 18.082C21.864 18.293 21.481 18.566 21.018 18.85C21.0489 18.2932 21.0429 17.735 21 17.179C20.9648 17.0079 20.9723 16.8309 21.0218 16.6634C21.0713 16.496 21.1614 16.3433 21.284 16.219C21.8939 15.6148 22.3287 14.8566 22.542 14.025C22.6057 13.8322 22.6232 13.6272 22.593 13.4264C22.5628 13.2256 22.4858 13.0348 22.3682 12.8693C22.2506 12.7038 22.0957 12.5683 21.9161 12.4737C21.7364 12.3792 21.537 12.3282 21.334 12.325C21.0053 12.3213 20.6827 12.413 20.405 12.589C19.4508 13.2406 18.5132 13.9161 17.593 14.615C17.046 15.027 16.531 15.483 16.001 15.915C15.9782 15.8904 15.9584 15.8632 15.942 15.834C15.9319 15.7603 15.912 15.6884 15.883 15.62C15.44 14.936 15.747 14.439 16.228 13.928C16.7291 13.4027 17.006 12.7029 17 11.977C17.0156 11.6071 16.8997 11.2436 16.673 10.951C16.5523 10.8024 16.4034 10.6791 16.235 10.588C15.9958 10.4571 15.7223 10.4024 15.4511 10.4314C15.18 10.4603 14.9242 10.5715 14.718 10.75L14.439 10.95C13.802 11.406 13.157 11.85 12.544 12.338C11.6491 13.0524 10.7735 13.7907 9.91802 14.552C9.51802 14.905 9.22602 15.387 8.81102 15.715C6.64702 17.424 4.46002 19.102 2.28102 20.791C2.2061 20.8357 2.1372 20.8898 2.07602 20.952C2.06972 20.9611 2.06436 20.9708 2.06002 20.981C2.01402 21.088 1.97502 21.265 2.02902 21.33C2.04226 21.3441 2.05826 21.3553 2.07602 21.363C2.17128 21.4025 2.27729 21.4078 2.37602 21.378C2.50683 21.3101 2.62681 21.2232 2.73202 21.12L8.83202 16.392C8.94102 16.307 9.05602 16.23 9.18902 16.134C9.22478 16.5325 9.37252 16.9127 9.61518 17.2308C9.85783 17.5489 10.1855 17.7919 10.5604 17.9317C10.9353 18.0715 11.342 18.1024 11.7337 18.0209C12.1254 17.9394 12.4861 17.7487 12.774 17.471C13.474 16.797 14.197 16.143 14.91 15.48L15.17 15.236C15.606 16.089 15.562 16.314 14.892 16.851C10.7747 20.1456 6.66035 23.441 2.54902 26.737C2.37402 26.877 2.02802 27.004 2.25502 27.302C2.48202 27.6 2.69102 27.293 2.86502 27.154C6.72235 24.0733 10.577 20.9886 14.429 17.9C14.529 17.82 14.634 17.749 14.779 17.643V17.967C14.7594 18.3413 14.8516 18.7131 15.044 19.0349C15.2363 19.3566 15.52 19.6139 15.859 19.774C16.1913 19.9428 16.5686 20.0019 16.9366 19.9428C17.3046 19.8837 17.6443 19.7094 17.907 19.445C18.7 18.745 19.485 18.031 20.274 17.325C20.324 17.28 20.382 17.246 20.474 17.176C20.5869 17.8633 20.5648 18.5661 20.409 19.245C20.3706 19.3352 20.3075 19.4129 20.227 19.469C19.575 20.0323 18.9207 20.5933 18.264 21.152L8.63202 29.328C8.51925 29.4032 8.41959 29.4965 8.33702 29.604C8.31067 29.653 8.29589 29.7074 8.29381 29.7631C8.29173 29.8187 8.30241 29.8741 8.32502 29.925C8.37021 29.9588 8.42244 29.9821 8.47783 29.993C8.53323 30.0039 8.59038 30.0022 8.64502 29.988C8.68814 29.9754 8.72783 29.9532 8.76102 29.923C8.81102 29.883 8.86102 29.832 8.90602 29.791L15.869 23.891C16.204 23.607 16.542 23.327 16.895 23.031C16.9129 23.0785 16.9273 23.1273 16.938 23.177C16.958 23.563 17.0909 23.9346 17.3202 24.2457C17.5496 24.5568 17.8652 24.7937 18.228 24.927C18.5864 25.0827 18.9836 25.126 19.3671 25.0511C19.7506 24.9763 20.1024 24.7869 20.376 24.508C20.84 24.085 21.298 23.655 21.758 23.227C22.058 22.952 22.348 22.676 22.664 22.379C22.7229 22.5842 22.7706 22.7925 22.807 23.003C22.853 23.4928 22.7854 23.9865 22.6096 24.446C22.4337 24.9054 22.1543 25.3181 21.793 25.652C20.634 26.9 19.449 28.121 18.274 29.352C18.197 29.432 18.091 29.498 18.049 29.593C18.007 29.688 17.98 29.874 18.03 29.914L18.044 29.923C18.1489 29.974 18.2668 29.9918 18.382 29.974C18.4143 29.9673 18.4431 29.9492 18.463 29.923C18.491 29.894 18.518 29.858 18.545 29.831C19.497 28.847 20.454 27.868 21.399 26.877C21.7805 26.4905 22.1391 26.0821 22.473 25.654C22.9085 25.1719 23.1972 24.5755 23.3053 23.9349C23.4133 23.2943 23.3362 22.6362 23.083 22.038C23.0558 21.9046 23.0824 21.7658 23.157 21.652C23.222 21.54 23.294 21.431 23.368 21.323C23.6048 21.0155 23.802 20.6796 23.955 20.323C24.2507 19.4478 24.7046 18.6343 25.294 17.923C25.565 17.5794 25.7515 17.1769 25.8383 16.7481C25.9252 16.3192 25.91 15.8759 25.794 15.454C25.753 15.2935 25.753 15.1254 25.794 14.965C26.3 13.398 26.821 11.836 27.337 10.273L28.027 8.17897L28.24 7.53197C28.694 7.53197 29.122 7.52297 29.548 7.53197C29.902 7.54197 30.01 7.37597 30.006 7.03197C29.985 5.65197 29.993 4.27297 29.993 2.89397ZM12.256 17.2C12.0324 17.4069 11.7491 17.5378 11.4465 17.5737C11.144 17.6096 10.8379 17.5488 10.572 17.4C10.3074 17.2869 10.0843 17.0947 9.93339 16.8498C9.78244 16.6048 9.71105 16.3191 9.72902 16.032C9.76105 15.6793 9.90748 15.3467 10.146 15.085C11.6964 13.6067 13.3761 12.2703 15.165 11.092C15.2627 11.0229 15.3737 10.9752 15.491 10.952C15.5697 10.9375 15.6504 10.9375 15.729 10.952C15.8232 10.9703 15.9131 11.0063 15.994 11.058C16.1575 11.1595 16.2897 11.3044 16.3759 11.4765C16.462 11.6486 16.4988 11.8412 16.482 12.033C16.4613 12.5322 16.2866 13.0129 15.982 13.409C14.893 14.8144 13.6424 16.0868 12.256 17.2ZM17.456 19.129C17.2822 19.3077 17.0538 19.4236 16.8069 19.4584C16.5599 19.4932 16.3085 19.4448 16.092 19.321C15.8642 19.2025 15.6703 19.028 15.5285 18.8138C15.3868 18.5997 15.302 18.353 15.282 18.097C15.2588 17.8759 15.2872 17.6525 15.3649 17.4443C15.4427 17.2361 15.5676 17.0487 15.73 16.897C17.248 15.4969 18.8766 14.2217 20.6 13.084C20.652 13.051 20.7 13.018 20.757 12.984C20.9076 12.8753 21.09 12.8198 21.2755 12.8261C21.4611 12.8324 21.6392 12.9003 21.782 13.019C21.9202 13.136 22.0179 13.2936 22.0614 13.4693C22.1048 13.6451 22.0917 13.8301 22.024 13.998C21.806 14.7242 21.4036 15.3815 20.856 15.906C19.753 17.008 18.606 18.069 17.458 19.125L17.456 19.129ZM23.367 20.37C22.7294 21.4414 21.9311 22.4087 21 23.238C20.6454 23.58 20.277 23.907 19.895 24.219C19.6927 24.3868 19.4495 24.498 19.1901 24.541C18.9308 24.584 18.6647 24.5574 18.419 24.4638C18.1734 24.3702 17.957 24.213 17.792 24.0084C17.627 23.8037 17.5193 23.5589 17.48 23.299C17.464 23.1545 17.4768 23.0082 17.5176 22.8686C17.5585 22.7291 17.6266 22.599 17.718 22.486C19.0788 21.0082 20.6341 19.7221 22.341 18.663C22.3618 18.6549 22.3838 18.6505 22.406 18.65L22.506 18.75C22.226 19.05 21.938 19.336 21.669 19.643C21.5881 19.7616 21.521 19.8891 21.469 20.023C21.617 20.067 21.79 20.183 21.91 20.142C22.393 19.98 22.868 19.792 23.377 19.592L23.788 19.432C23.634 19.772 23.524 20.082 23.369 20.366L23.367 20.37ZM24.74 17.835C24.367 18.3098 23.8995 18.7021 23.367 18.987C23.2024 19.079 23.0334 19.165 22.86 19.245C23.038 18.564 23.216 17.933 23.367 17.295L23.373 17.269C23.5212 16.6425 23.8029 16.0554 24.199 15.548C24.442 15.229 24.715 15.356 24.994 15.425C25.252 15.488 25.317 15.677 25.328 15.925C25.369 16.6102 25.1609 17.2871 24.742 17.831L24.74 17.835ZM27.08 9.33497C26.502 11.085 25.917 12.835 25.353 14.587C25.247 14.916 25.103 14.976 24.792 14.778L26.275 8.18497L26.503 7.17297L27.703 7.45397L27.462 8.18497L27.08 9.33497Z" fill="black"/>
</svg>
