<svg width="32" height="32" viewBox="0 0 32 32" fill="none" xmlns="http://www.w3.org/2000/svg">
<path d="M16 0C13.8988 0 11.8183 0.413852 9.87706 1.21793C7.93586 2.022 6.17203 3.20055 4.68629 4.68629C1.68571 7.68687 0 11.7565 0 16C0 23.072 4.592 29.072 10.944 31.2C11.744 31.328 12 30.832 12 30.4V27.696C7.568 28.656 6.624 25.552 6.624 25.552C5.888 23.696 4.848 23.2 4.848 23.2C3.392 22.208 4.96 22.24 4.96 22.24C6.56 22.352 7.408 23.888 7.408 23.888C8.8 26.32 11.152 25.6 12.064 25.216C12.208 24.176 12.624 23.472 13.072 23.072C9.52 22.672 5.792 21.296 5.792 15.2C5.792 13.424 6.4 12 7.44 10.864C7.28 10.464 6.72 8.8 7.6 6.64C7.6 6.64 8.944 6.208 12 8.272C13.264 7.92 14.64 7.744 16 7.744C17.36 7.744 18.736 7.92 20 8.272C23.056 6.208 24.4 6.64 24.4 6.64C25.28 8.8 24.72 10.464 24.56 10.864C25.6 12 26.208 13.424 26.208 15.2C26.208 21.312 22.464 22.656 18.896 23.056C19.472 23.552 20 24.528 20 26.016V30.4C20 30.832 20.256 31.344 21.072 31.2C27.424 29.056 32 23.072 32 16C32 13.8988 31.5861 11.8183 30.7821 9.87706C29.978 7.93586 28.7994 6.17203 27.3137 4.68629C25.828 3.20055 24.0641 2.022 22.1229 1.21793C20.1817 0.413852 18.1012 0 16 0Z" fill="white"/>
</svg>
