<svg width="32" height="33" viewBox="0 0 32 33" fill="none" xmlns="http://www.w3.org/2000/svg">
<path d="M17.6453 0.224792C19.4453 0.229592 20.3588 0.239192 21.1476 0.261592L21.458 0.272791C21.8164 0.285591 22.17 0.301591 22.5972 0.32079C24.2996 0.400788 25.4611 0.669582 26.4803 1.06477C27.5363 1.47116 28.4259 2.02155 29.3154 2.90953C30.129 3.70934 30.7585 4.67683 31.1602 5.74466C31.5554 6.76384 31.8242 7.92541 31.9042 9.62937C31.9234 10.055 31.9394 10.4086 31.9522 10.7685L31.9618 11.0789C31.9858 11.8661 31.9954 12.7797 31.9986 14.5797L32.0002 15.7732V17.8692C32.0041 19.0362 31.9918 20.2032 31.9634 21.3699L31.9538 21.6803C31.941 22.0403 31.925 22.3939 31.9058 22.8195C31.8258 24.5234 31.5538 25.6834 31.1602 26.7042C30.7597 27.7726 30.13 28.7403 29.3154 29.5393C28.5154 30.3526 27.548 30.9821 26.4803 31.3841C25.4611 31.7793 24.2996 32.048 22.5972 32.128C22.2175 32.1459 21.8378 32.1619 21.458 32.176L21.1476 32.1856C20.3588 32.208 19.4453 32.2192 17.6453 32.2224L16.4517 32.224H14.3574C13.1898 32.2281 12.0223 32.2158 10.8551 32.1872L10.5447 32.1776C10.1649 32.1633 9.78513 32.1467 9.4055 32.128C7.70314 32.048 6.54157 31.7793 5.52079 31.3841C4.45309 30.9831 3.48599 30.3534 2.68726 29.5393C1.87295 28.7398 1.24285 27.7722 0.840904 26.7042C0.445713 25.685 0.176919 24.5234 0.0969208 22.8195C0.0790954 22.4398 0.0630956 22.0601 0.048922 21.6803L0.0409224 21.3699C0.0114384 20.2032 -0.00189609 19.0362 0.000923179 17.8692V14.5797C-0.00354226 13.4126 0.00819205 12.2456 0.0361225 11.0789L0.0473222 10.7685C0.0601219 10.4086 0.0761214 10.055 0.095321 9.62937C0.175319 7.92541 0.444113 6.76544 0.839303 5.74466C1.24108 4.67573 1.87243 3.70795 2.68886 2.90953C3.48739 2.09591 4.45385 1.46634 5.52079 1.06477C6.54157 0.669582 7.70154 0.400788 9.4055 0.32079C9.83109 0.301591 10.1863 0.285591 10.5447 0.272791L10.8551 0.263191C12.0217 0.234765 13.1888 0.222497 14.3558 0.226392L17.6453 0.224792ZM16.0005 8.22461C13.8789 8.22461 11.8441 9.06744 10.3438 10.5677C8.84357 12.068 8.00074 14.1027 8.00074 16.2244C8.00074 18.3461 8.84357 20.3809 10.3438 21.8811C11.8441 23.3814 13.8789 24.2242 16.0005 24.2242C18.1222 24.2242 20.157 23.3814 21.6573 21.8811C23.1575 20.3809 24.0004 18.3461 24.0004 16.2244C24.0004 14.1027 23.1575 12.068 21.6573 10.5677C20.157 9.06744 18.1222 8.22461 16.0005 8.22461ZM16.0005 11.4245C16.6309 11.4244 17.2551 11.5485 17.8374 11.7896C18.4198 12.0307 18.949 12.3842 19.3948 12.8298C19.8406 13.2755 20.1942 13.8045 20.4356 14.3868C20.6769 14.9692 20.8011 15.5933 20.8012 16.2236C20.8013 16.8539 20.6773 17.4781 20.4362 18.0605C20.1951 18.6429 19.8416 19.1721 19.3959 19.6179C18.9503 20.0637 18.4212 20.4173 17.8389 20.6586C17.2566 20.8999 16.6325 21.0242 16.0021 21.0243C14.7291 21.0243 13.5083 20.5186 12.6081 19.6185C11.708 18.7183 11.2023 17.4974 11.2023 16.2244C11.2023 14.9514 11.708 13.7305 12.6081 12.8304C13.5083 11.9302 14.7291 11.4245 16.0021 11.4245M24.402 5.82466C23.8715 5.82466 23.3628 6.03537 22.9878 6.41043C22.6127 6.7855 22.402 7.29419 22.402 7.82462C22.402 8.35504 22.6127 8.86373 22.9878 9.2388C23.3628 9.61386 23.8715 9.82457 24.402 9.82457C24.9324 9.82457 25.4411 9.61386 25.8161 9.2388C26.1912 8.86373 26.4019 8.35504 26.4019 7.82462C26.4019 7.29419 26.1912 6.7855 25.8161 6.41043C25.4411 6.03537 24.9324 5.82466 24.402 5.82466Z" fill="white"/>
</svg>
