<svg width="32" height="32" viewBox="0 0 32 32" fill="none" xmlns="http://www.w3.org/2000/svg">
<path d="M28 10.6667V9.33333L24 12L20 9.33333V10.6667L24 13.3333L28 10.6667ZM29.3333 4H2.66667C1.2 4 0 5.2 0 6.66667V25.3333C0 26.8 1.2 28 2.66667 28H29.3333C30.8 28 31.9867 26.8 31.9867 25.3333L32 6.66667C32 5.2 30.8 4 29.3333 4ZM10.6667 8C12.88 8 14.6667 9.78667 14.6667 12C14.6667 14.2133 12.88 16 10.6667 16C8.45333 16 6.66667 14.2133 6.66667 12C6.66667 9.78667 8.45333 8 10.6667 8ZM18.6667 24H2.66667V22.6667C2.66667 20 8 18.5333 10.6667 18.5333C13.3333 18.5333 18.6667 20 18.6667 22.6667V24ZM29.3333 16H18.6667V8H29.3333V16Z" fill="white"/>
</svg>
