<svg width="32" height="32" viewBox="0 0 32 32" fill="none" xmlns="http://www.w3.org/2000/svg">
<path d="M26.6667 5.33325H5.33333C3.86667 5.33325 2.68 6.53325 2.68 7.99992L2.66667 23.9999C2.66667 25.4666 3.86667 26.6666 5.33333 26.6666H26.6667C28.1333 26.6666 29.3333 25.4666 29.3333 23.9999V7.99992C29.3333 6.53325 28.1333 5.33325 26.6667 5.33325ZM26.1333 10.9999L16.7067 16.8933C16.28 17.1599 15.72 17.1599 15.2933 16.8933L5.86667 10.9999C5.73297 10.9249 5.61589 10.8235 5.52252 10.7019C5.42915 10.5802 5.36142 10.441 5.32344 10.2924C5.28545 10.1439 5.278 9.98917 5.30154 9.83766C5.32508 9.68616 5.37912 9.541 5.46038 9.41099C5.54164 9.28097 5.64843 9.16879 5.7743 9.08125C5.90017 8.9937 6.0425 8.9326 6.19266 8.90165C6.34283 8.8707 6.49771 8.87054 6.64794 8.90118C6.79817 8.93182 6.94062 8.99263 7.06667 9.07992L16 14.6666L24.9333 9.07992C25.0594 8.99263 25.2018 8.93182 25.3521 8.90118C25.5023 8.87054 25.6572 8.8707 25.8073 8.90165C25.9575 8.9326 26.0998 8.9937 26.2257 9.08125C26.3516 9.16879 26.4584 9.28097 26.5396 9.41099C26.6209 9.541 26.6749 9.68616 26.6985 9.83766C26.722 9.98917 26.7146 10.1439 26.6766 10.2924C26.6386 10.441 26.5709 10.5802 26.4775 10.7019C26.3841 10.8235 26.267 10.9249 26.1333 10.9999Z" fill="white"/>
</svg>
